<?xml version="1.0" encoding="UTF-8"?><svg id="Layer_1" xmlns="http://www.w3.org/2000/svg" viewBox="0 0 600 350"><defs><style>.cls-1{fill:none;}</style></defs><rect class="cls-1" y="0" width="600" height="350"/><g><path d="m103.23,244.02c-4.22-7.65-4.06-17.82-.01-25.83,2.13-4.21,4.9-6.79,6-7.75,6.01-5.22,12.78-6.04,16.01-6.38,0,0,9.05-.96,18,3.1,1.35.61,4.11,1.98,7.19,3.85,3.22,1.95,3.27,2.3,5.69,3.68,3.04,1.74,5.94,3.39,9.79,3.85,2.47.29,5.83.7,8.78-1.34,3.55-2.44,5.18-7.49,3.93-11.7-1.65-5.52-7.59-7.44-8.71-7.74-2.73-.74-6.92-.95-10.05-.95h-2.94c-2.82,0-5.25-1.77-5.25-4.51s2.21-4.89,3.94-7.03c4.31-5.33,7.18-8.98,11.46-14.99,2.16-3.04,1.8-7.18-1.07-9.55-3.03-2.52-7.45-1.92-9.94,1.14-2.34,2.88-4.69,6.15-5.48,7.18-2.28,2.94-6.42,7.72-9.88,10.06-5.88,3.98-14.77,6.12-22.13,2.03-8.7-4.84-10.89-15.73-8.86-24.83,1.46-6.54,6.02-14.87,9.64-19.64,3.4-4.5,5.39-7.2,10.42-13.85,3.23-4.26.5-8.17-4.68-7.47-4.05.55-7.37,3.41-10.97,8.26-.39.52-1.23,1.61-1.68,2.18-1.46,1.85-2.76,4.09-5.22,4.13-2.08.04-2.81-2.49-2.09-5.04,1.38-4.87,5.56-11.3,9.79-16.05,6.5-7.31,15.41-12.48,26-11.9,9.15.5,10.92,9.44,7.65,16.79-1.08,2.43-2.57,4.33-4.23,6.65-1.89,2.65-6.45,8.37-8.88,11.53-6.44,8.37-9.49,17.96.76,21.85,4.11,1.56,9.07-.82,11.71-4,3.47-4.17,5.42-9.41,7.47-14.36,3.18-7.63,6.23-15.31,9.33-22.98,2.24-5.54,4.15-12.72,10.5-14.88,5.69-1.94,11.28.95,13.19,6.43,1.44,4.14,1.5,7.83,1.5,13v29.64c0,11.55-2.74,19.94-9.14,28.48-1.3,1.73-2.72,3.53-3.58,4.65-3.53,4.59-3.11,7.49,3.28,10.49,6.12,2.88,8.52,5.62,10.3,8,2.13,2.85,2.98,5.71,3.22,6.59.51,1.87.63,3.44.66,4.33.13,3.77-.92,6.78-1.69,8.59-1.48,3.47-3.55,5.67-4.69,6.86-.96,1-2.95,2.9-5.94,4.57-3.21,1.79-5.95,2.42-8.15,2.9-5.78,1.27-10.56.97-12.72.76-7.57-.75-13.95-3.52-15.12-4.04-4.1-1.82-6.16-3.3-9.93-3.25-1.64.02-4.26.37-6.39,2.44-2.24,2.18-2.12,5.17-2.11,5.61.1,3.63,2.81,6,4.44,7.44,2.71,2.39,5.55,3.36,7.53,3.93,4.39,1.28,11.45,3.33,20.8,1.8,4.68-.77,13.46-2.4,21.17-8.64,3.08-2.49,5.65-5.35,7.99-4.6,1.4.45,1.94,1.95,1.84,3.32-.13,1.78-1.37,3.92-2.03,4.73-6.24,7.64-12.7,12.12-17.28,14.56-7.09,3.79-18.81,6.97-31.38,6.97-20.73,0-32.49-9.5-37.78-19.09Z"/><g><path d="m313.66,198.28c-7.28,0-12.89-2.19-16.81-6.58-3.93-4.38-5.89-10.84-5.89-19.36v-38.47h10.92v37.6c0,6.37,1.24,10.94,3.72,13.71,2.48,2.77,6.08,4.16,10.8,4.16s8.52-1.72,11.66-5.15c3.14-3.43,4.71-8.17,4.71-14.21v-36.11h10.92v63.04h-10.55v-8.31h-.25c-1.99,2.98-4.65,5.34-8,7.07-3.35,1.74-7.09,2.61-11.23,2.61Z"/><path d="m420.25,132.52c6.78,0,12.01,2.15,15.7,6.45,3.68,4.3,5.52,10.63,5.52,18.99v38.96h-10.92v-38.09c0-11.58-4.3-17.37-12.9-17.37-4.55,0-8.17,1.78-10.86,5.34-2.69,3.56-4.03,8.36-4.03,14.39v35.74h-10.92v-39.71c0-4.96-1.12-8.83-3.35-11.6-2.23-2.77-5.38-4.16-9.43-4.16-4.63,0-8.29,1.82-10.98,5.46-2.69,3.64-4.03,8.64-4.03,15.01v34.99h-10.92v-63.04h10.55v7.82h.25c4.47-6.12,10.34-9.18,17.62-9.18,9.1,0,15.34,3.97,18.74,11.91,4.47-7.94,11.13-11.91,19.98-11.91Z"/><path d="m475.22,132.14c7.86,0,13.96,2.05,18.3,6.14,4.34,4.09,6.51,10.2,6.51,18.3v24.2c0,6.37.5,11.75,1.49,16.13h-9.93c-.58-2.65-.87-5.71-.87-9.18h-.25c-4.55,7.03-11.83,10.55-21.84,10.55-6.45,0-11.62-1.72-15.51-5.15-3.89-3.43-5.83-7.88-5.83-13.34s1.8-9.78,5.4-12.97c3.6-3.18,9.78-5.48,18.55-6.89,5.31-.86,10.59-1.5,15.84-1.93,1.36-.11,2.4-1.23,2.4-2.59v-.07c0-5.04-1.26-8.77-3.78-11.17-2.52-2.4-6.02-3.6-10.49-3.6s-7.94,1.14-10.42,3.41c-2.48,2.28-3.81,5.32-3.97,9.12h-10.92c.33-6.2,2.69-11.25,7.07-15.14,4.38-3.89,10.46-5.83,18.24-5.83Zm14.27,37.85h0c0-2.08-1.79-3.71-3.87-3.52-4.76.45-8.97,1-12.64,1.65-5.3.83-9.04,2.07-11.23,3.72-2.19,1.66-3.29,4.05-3.29,7.2,0,3.31,1.14,5.94,3.41,7.88,2.27,1.94,5.44,2.92,9.49,2.92,5.54,0,9.88-1.65,13.03-4.96,1.9-1.98,3.23-4.03,3.97-6.14.74-2.11,1.12-5.03,1.12-8.75Z"/><path d="m271.32,222.17v-33.23h-.25c-4.21,6.2-10.45,9.29-18.72,9.29-7.27,0-12.9-2.19-16.86-6.57-3.97-4.38-5.95-10.83-5.95-19.34v-38.44h10.91v37.57c0,6.37,1.24,10.94,3.72,13.7,2.48,2.76,6.07,4.16,10.79,4.16s8.62-1.7,11.72-5.09c3.1-3.39,4.65-8.14,4.65-14.26v-36.09h10.91v88.29h-10.91Z"/></g></g></svg>