<?xml version="1.0" encoding="UTF-8"?><svg id="Layer_1" xmlns="http://www.w3.org/2000/svg" viewBox="0 0 470 350"><defs><style>.cls-1{fill:none;}.cls-2{fill:#fff;}</style></defs><rect class="cls-1" width="470" height="350"/><g><path class="cls-2" d="m183.86,198.28c-7.28,0-12.89-2.19-16.81-6.58-3.93-4.38-5.89-10.84-5.89-19.36v-38.47h10.92v37.6c0,6.37,1.24,10.94,3.72,13.71,2.48,2.77,6.08,4.16,10.8,4.16s8.52-1.72,11.66-5.15c3.14-3.43,4.71-8.17,4.71-14.21v-36.11h10.92v63.04h-10.55v-8.31h-.25c-1.99,2.98-4.65,5.34-8,7.07-3.35,1.74-7.09,2.61-11.23,2.61Z"/><path class="cls-2" d="m290.45,132.52c6.78,0,12.01,2.15,15.7,6.45,3.68,4.3,5.52,10.63,5.52,18.99v38.96h-10.92v-38.09c0-11.58-4.3-17.37-12.9-17.37-4.55,0-8.17,1.78-10.86,5.34-2.69,3.56-4.03,8.36-4.03,14.39v35.74h-10.92v-39.71c0-4.96-1.12-8.83-3.35-11.6-2.23-2.77-5.38-4.16-9.43-4.16-4.63,0-8.29,1.82-10.98,5.46-2.69,3.64-4.03,8.64-4.03,15.01v34.99h-10.92v-63.04h10.55v7.82h.25c4.47-6.12,10.34-9.18,17.62-9.18,9.1,0,15.34,3.97,18.74,11.91,4.47-7.94,11.13-11.91,19.98-11.91Z"/><path class="cls-2" d="m345.42,132.14c7.86,0,13.96,2.05,18.3,6.14,4.34,4.09,6.51,10.2,6.51,18.3v24.2c0,6.37.5,11.75,1.49,16.13h-9.93c-.58-2.65-.87-5.71-.87-9.18h-.25c-4.55,7.03-11.83,10.55-21.84,10.55-6.45,0-11.62-1.72-15.51-5.15-3.89-3.43-5.83-7.88-5.83-13.34s1.8-9.78,5.4-12.97c3.6-3.18,9.78-5.48,18.55-6.89,5.31-.86,10.59-1.5,15.84-1.93,1.36-.11,2.4-1.23,2.4-2.59v-.07c0-5.04-1.26-8.77-3.78-11.17-2.52-2.4-6.02-3.6-10.49-3.6s-7.94,1.14-10.42,3.41c-2.48,2.28-3.81,5.32-3.97,9.12h-10.92c.33-6.2,2.69-11.25,7.07-15.14,4.38-3.89,10.46-5.83,18.24-5.83Zm14.27,37.85h0c0-2.08-1.79-3.71-3.87-3.52-4.76.45-8.97,1-12.64,1.65-5.3.83-9.04,2.07-11.23,3.72-2.19,1.66-3.29,4.05-3.29,7.2,0,3.31,1.14,5.94,3.41,7.88,2.27,1.94,5.44,2.92,9.49,2.92,5.54,0,9.88-1.65,13.03-4.96,1.9-1.98,3.23-4.03,3.97-6.14.74-2.11,1.12-5.03,1.12-8.75Z"/><path class="cls-2" d="m141.52,222.17v-33.23h-.25c-4.21,6.2-10.45,9.29-18.72,9.29-7.27,0-12.9-2.19-16.86-6.57-3.97-4.38-5.95-10.83-5.95-19.34v-38.44h10.91v37.57c0,6.37,1.24,10.94,3.72,13.7,2.48,2.76,6.07,4.16,10.79,4.16s8.62-1.7,11.72-5.09c3.1-3.39,4.65-8.14,4.65-14.26v-36.09h10.91v88.29h-10.91Z"/></g></svg>