<?xml version="1.0" encoding="UTF-8"?><svg id="Layer_1" xmlns="http://www.w3.org/2000/svg" viewBox="0 0 295 350"><defs><style>.cls-1{fill:none;}.cls-2{fill:#fff;}</style></defs><rect class="cls-1" y="0" width="295" height="350"/><path class="cls-2" d="m103.33,244.02c-4.22-7.65-4.06-17.82-.01-25.83,2.13-4.21,4.9-6.79,6-7.75,6.01-5.22,12.78-6.04,16.01-6.38,0,0,9.05-.96,18,3.1,1.35.61,4.11,1.98,7.19,3.85,3.22,1.95,3.27,2.3,5.69,3.68,3.04,1.74,5.94,3.39,9.79,3.85,2.47.29,5.83.7,8.78-1.34,3.55-2.44,5.18-7.49,3.93-11.7-1.65-5.52-7.59-7.44-8.71-7.74-2.73-.74-6.92-.95-10.05-.95h-2.94c-2.82,0-5.25-1.77-5.25-4.51s2.21-4.89,3.94-7.03c4.31-5.33,7.18-8.98,11.46-14.99,2.16-3.04,1.8-7.18-1.07-9.55-3.03-2.52-7.45-1.92-9.94,1.14-2.34,2.88-4.69,6.15-5.48,7.18-2.28,2.94-6.42,7.72-9.88,10.06-5.88,3.98-14.77,6.12-22.13,2.03-8.7-4.84-10.89-15.73-8.86-24.83,1.46-6.54,6.02-14.87,9.64-19.64,3.4-4.5,5.39-7.2,10.42-13.85,3.23-4.26.5-8.17-4.68-7.47-4.05.55-7.37,3.41-10.97,8.26-.39.52-1.23,1.61-1.68,2.18-1.46,1.85-2.76,4.09-5.22,4.13-2.08.04-2.81-2.49-2.09-5.04,1.38-4.87,5.56-11.3,9.79-16.05,6.5-7.31,15.41-12.48,26-11.9,9.15.5,10.92,9.44,7.65,16.79-1.08,2.43-2.57,4.33-4.23,6.65-1.89,2.65-6.45,8.37-8.88,11.53-6.44,8.37-9.49,17.96.76,21.85,4.11,1.56,9.07-.82,11.71-4,3.47-4.17,5.42-9.41,7.47-14.36,3.18-7.63,6.23-15.31,9.33-22.98,2.24-5.54,4.15-12.72,10.5-14.88,5.69-1.94,11.28.95,13.19,6.43,1.44,4.14,1.5,7.83,1.5,13v29.64c0,11.55-2.74,19.94-9.14,28.48-1.3,1.73-2.72,3.53-3.58,4.65-3.53,4.59-3.11,7.49,3.28,10.49,6.12,2.88,8.52,5.62,10.3,8,2.13,2.85,2.98,5.71,3.22,6.59.51,1.87.63,3.44.66,4.33.13,3.77-.92,6.78-1.69,8.59-1.48,3.47-3.55,5.67-4.69,6.86-.96,1-2.95,2.9-5.94,4.57-3.21,1.79-5.95,2.42-8.15,2.9-5.78,1.27-10.56.97-12.72.76-7.57-.75-13.95-3.52-15.12-4.04-4.1-1.82-6.16-3.3-9.93-3.25-1.64.02-4.26.37-6.39,2.44-2.24,2.18-2.12,5.17-2.11,5.61.1,3.63,2.81,6,4.44,7.44,2.71,2.39,5.55,3.36,7.53,3.93,4.39,1.28,11.45,3.33,20.8,1.8,4.68-.77,13.46-2.4,21.17-8.64,3.08-2.49,5.65-5.35,7.99-4.6,1.4.45,1.94,1.95,1.84,3.32-.13,1.78-1.37,3.92-2.03,4.73-6.24,7.64-12.7,12.12-17.28,14.56-7.09,3.79-18.81,6.97-31.38,6.97-20.73,0-32.49-9.5-37.78-19.09Z"/></svg>